<svg width="280" height="59" viewBox="0 0 280 59" fill="none" xmlns="http://www.w3.org/2000/svg">
<g filter="url(#filter0_i_15_1356)">
<rect width="278.987" height="58.2322" transform="translate(0.418945 0.767822)" fill="#D9D9D9"/>
<path d="M20.8224 22.1246C20.6434 20.6132 19.9175 19.4399 18.6448 18.6047C17.3721 17.7695 15.811 17.3519 13.9616 17.3519C12.6093 17.3519 11.426 17.5706 10.4118 18.0081C9.40758 18.4456 8.62207 19.0472 8.05531 19.8128C7.49849 20.5784 7.22008 21.4485 7.22008 22.4229C7.22008 23.2382 7.41397 23.9392 7.80176 24.5259C8.19949 25.1026 8.70659 25.5848 9.32306 25.9726C9.93954 26.3505 10.5858 26.6637 11.262 26.9122C11.9381 27.1509 12.5596 27.3448 13.1263 27.4939L16.2286 28.3291C17.0241 28.538 17.909 28.8263 18.8834 29.1942C19.8678 29.5621 20.8074 30.0642 21.7023 30.7006C22.6072 31.327 23.3529 32.1324 23.9395 33.1168C24.5262 34.1012 24.8195 35.3093 24.8195 36.7411C24.8195 38.3916 24.387 39.8831 23.5219 41.2155C22.6668 42.5479 21.414 43.6068 19.7634 44.3924C18.1228 45.1779 16.1292 45.5706 13.7826 45.5706C11.5951 45.5706 9.70091 45.2176 8.10005 44.5117C6.50914 43.8057 5.2563 42.8213 4.34153 41.5585C3.4367 40.2958 2.92463 38.8291 2.80531 37.1587H6.62349C6.72292 38.3121 7.11071 39.2666 7.78684 40.0223C8.47292 40.7681 9.33798 41.3249 10.382 41.6928C11.436 42.0507 12.5695 42.2297 13.7826 42.2297C15.1945 42.2297 16.4623 42.001 17.5858 41.5436C18.7094 41.0763 19.5993 40.43 20.2556 39.6047C20.9118 38.7695 21.24 37.7951 21.24 36.6814C21.24 35.6672 20.9566 34.8419 20.3898 34.2056C19.8231 33.5692 19.0773 33.0522 18.1526 32.6544C17.2279 32.2567 16.2286 31.9087 15.1547 31.6104L11.3962 30.5365C9.00985 29.8505 7.12065 28.871 5.7286 27.5983C4.33656 26.3256 3.64054 24.6601 3.64054 22.6019C3.64054 20.8916 4.10289 19.4002 5.02761 18.1274C5.96227 16.8448 7.21511 15.8505 8.78613 15.1445C10.3671 14.4286 12.132 14.0706 14.0809 14.0706C16.0496 14.0706 17.7996 14.4236 19.3309 15.1296C20.8621 15.8256 22.0752 16.7801 22.9701 17.9932C23.8749 19.2063 24.3522 20.5834 24.4019 22.1246H20.8224ZM28.276 14.4882H32.5118L40.9834 28.7468H41.3414L49.8129 14.4882H54.0487L43.0118 32.4456V45.0337H39.3129V32.4456L28.276 14.4882ZM75.5372 22.1246C75.3582 20.6132 74.6324 19.4399 73.3596 18.6047C72.0869 17.7695 70.5258 17.3519 68.6764 17.3519C67.3241 17.3519 66.1409 17.5706 65.1267 18.0081C64.1224 18.4456 63.3369 19.0472 62.7702 19.8128C62.2133 20.5784 61.9349 21.4485 61.9349 22.4229C61.9349 23.2382 62.1288 23.9392 62.5166 24.5259C62.9143 25.1026 63.4214 25.5848 64.0379 25.9726C64.6544 26.3505 65.3007 26.6637 65.9768 26.9122C66.653 27.1509 67.2744 27.3448 67.8412 27.4939L70.9434 28.3291C71.7389 28.538 72.6238 28.8263 73.5983 29.1942C74.5827 29.5621 75.5223 30.0642 76.4172 30.7006C77.322 31.327 78.0677 32.1324 78.6544 33.1168C79.241 34.1012 79.5344 35.3093 79.5344 36.7411C79.5344 38.3916 79.1018 39.8831 78.2368 41.2155C77.3817 42.5479 76.1288 43.6068 74.4783 44.3924C72.8376 45.1779 70.844 45.5706 68.4974 45.5706C66.3099 45.5706 64.4157 45.2176 62.8149 44.5117C61.224 43.8057 59.9711 42.8213 59.0564 41.5585C58.1515 40.2958 57.6395 38.8291 57.5202 37.1587H61.3383C61.4378 38.3121 61.8256 39.2666 62.5017 40.0223C63.1878 40.7681 64.0528 41.3249 65.0969 41.6928C66.1508 42.0507 67.2844 42.2297 68.4974 42.2297C69.9094 42.2297 71.1771 42.001 72.3007 41.5436C73.4243 41.0763 74.3142 40.43 74.9704 39.6047C75.6267 38.7695 75.9548 37.7951 75.9548 36.6814C75.9548 35.6672 75.6714 34.8419 75.1047 34.2056C74.5379 33.5692 73.7922 33.0522 72.8675 32.6544C71.9427 32.2567 70.9434 31.9087 69.8696 31.6104L66.1111 30.5365C63.7247 29.8505 61.8355 28.871 60.4434 27.5983C59.0514 26.3256 58.3554 24.6601 58.3554 22.6019C58.3554 20.8916 58.8177 19.4002 59.7425 18.1274C60.6771 16.8448 61.93 15.8505 63.501 15.1445C65.0819 14.4286 66.8469 14.0706 68.7957 14.0706C70.7645 14.0706 72.5145 14.4236 74.0457 15.1296C75.577 15.8256 76.79 16.7801 77.6849 17.9932C78.5898 19.2063 79.067 20.5834 79.1167 22.1246H75.5372ZM83.9454 17.7695V14.4882H106.854V17.7695H97.2494V45.0337H93.5505V17.7695H83.9454ZM112.563 45.0337V14.4882H130.998V17.7695H116.262V28.0905H130.043V31.3718H116.262V41.7524H131.236V45.0337H112.563ZM137.665 14.4882H142.079L152.46 39.8434H152.818L163.199 14.4882H167.614V45.0337H164.153V21.8263H163.855L154.31 45.0337H150.969L141.423 21.8263H141.125V45.0337H137.665V14.4882ZM175.03 45.0337V14.4882H193.465V17.7695H178.729V28.0905H192.51V31.3718H178.729V41.7524H193.703V45.0337H175.03Z" fill="black"/>
</g>
<defs>
<filter id="filter0_i_15_1356" x="0.418945" y="0.767822" width="278.987" height="62.2322" filterUnits="userSpaceOnUse" color-interpolation-filters="sRGB">
<feFlood flood-opacity="0" result="BackgroundImageFix"/>
<feBlend mode="normal" in="SourceGraphic" in2="BackgroundImageFix" result="shape"/>
<feColorMatrix in="SourceAlpha" type="matrix" values="0 0 0 0 0 0 0 0 0 0 0 0 0 0 0 0 0 0 127 0" result="hardAlpha"/>
<feOffset dy="4"/>
<feGaussianBlur stdDeviation="2"/>
<feComposite in2="hardAlpha" operator="arithmetic" k2="-1" k3="1"/>
<feColorMatrix type="matrix" values="0 0 0 0 0 0 0 0 0 0 0 0 0 0 0 0 0 0 0.25 0"/>
<feBlend mode="normal" in2="shape" result="effect1_innerShadow_15_1356"/>
</filter>
</defs>
</svg>
